# xmcd
#
# Track frame offsets:
#	150
#	18999
#	32013
#	50489
#	66636
#	83500
#	100770
#	114030
#	130058
#	145906
#
# Disc length: 2150 seconds
#
# Revision: 0
# Processed by: cddbd v1.5.2PL0 Copyright (c) Steve Scherf et al.
# Submitted via: EasyCDDAExtractor 10.2.0.1
#
DISCID=7b08640a
DTITLE=Margaret Ann Smith - Weary Traveler
DYEAR=2004
DGENRE=Gospel
TTITLE0=Broken Vessel
TTITLE1=Weary Traveler
TTITLE2=I Sure Miss You
TTITLE3=Highway To Heaven
TTITLE4=What A Friend/ The Rose
TTITLE5=Prisoner On Death Row
TTITLE6=Promise You'll Meet Me There
TTITLE7=Heaven Will Be My Home
TTITLE8=Come Spring
TTITLE9=Last Thread Of Hope
EXTD=
EXTT0=
EXTT1=
EXTT2=
EXTT3=
EXTT4=
EXTT5=
EXTT6=
EXTT7=
EXTT8=
EXTT9=
PLAYORDER=
